<svg width="33" height="33" viewBox="0 0 33 33" fill="none" xmlns="http://www.w3.org/2000/svg">
<rect width="33" height="33" rx="3" fill="#F83737"/>
<path d="M18.65 17.0003L21.7436 13.9067C22.0854 13.5649 22.0854 13.0107 21.7436 12.6694L21.3312 12.257C20.9893 11.9151 20.4351 11.9151 20.0938 12.257L17.0003 15.3505L13.9067 12.2564C13.5649 11.9145 13.0107 11.9145 12.6694 12.2564L12.2564 12.6688C11.9145 13.0107 11.9145 13.5649 12.2564 13.9061L15.3505 17.0003L12.257 20.0938C11.9151 20.4358 11.9151 20.9899 12.257 21.3312L12.6694 21.7436C13.0112 22.0854 13.5654 22.0854 13.9067 21.7436L17.0003 18.65L20.0938 21.7436C20.4358 22.0854 20.9899 22.0854 21.3312 21.7436L21.7436 21.3312C22.0854 20.9893 22.0854 20.4351 21.7436 20.0938L18.65 17.0003Z" fill="white"/>
</svg>
