<svg width="14" height="14" viewBox="0 0 14 14" fill="none" xmlns="http://www.w3.org/2000/svg">
<g clip-path="url(#clip0_1_76)">
<path d="M13.8543 6.64617L12.8548 5.64664L7.35458 0.14641C7.15934 -0.0488034 6.8428 -0.0488034 6.64756 0.14641L1.1473 5.64664L0.147267 6.6467C-0.0445774 6.84534 -0.0390987 7.16188 0.159543 7.35372C0.353321 7.54088 0.660512 7.54088 0.85429 7.35372L1.00028 7.20671V13.5C1.00028 13.7761 1.22415 14 1.50031 14H12.5008C12.777 14 13.0008 13.7761 13.0008 13.5V7.20671L13.1473 7.35323C13.346 7.54507 13.6625 7.53956 13.8543 7.34095C14.0415 7.14717 14.0415 6.83995 13.8543 6.64617ZM8.50064 13H5.50051V8.99978H8.50064V13ZM12.0008 13H9.50067V8.49978C9.50067 8.22361 9.2768 7.99975 9.00064 7.99975H5.00047C4.72431 7.99975 4.50044 8.22361 4.50044 8.49978V13H2.00035V6.20667L7.00054 1.20645L12.0008 6.20667V13Z" fill="#626262"/>
</g>
<defs>
<clipPath id="clip0_1_76">
<rect width="14" height="14" fill="white"/>
</clipPath>
</defs>
</svg>
