<svg width="28" height="28" viewBox="0 0 28 28" fill="none" xmlns="http://www.w3.org/2000/svg">
<path d="M14 0C6.26828 0 0 6.26799 0 14C0 21.732 6.26828 28 14 28C21.7317 28 28 21.732 28 14C28 6.26799 21.7317 0 14 0ZM15.611 18.6501C14.3159 18.6501 13.098 17.9501 12.6809 17.1552C12.6809 17.1552 11.9843 19.918 11.8379 20.451C11.3186 22.3358 9.79098 24.2212 9.6721 24.3756C9.58932 24.483 9.40628 24.4495 9.38738 24.3069C9.35501 24.0668 8.96487 21.689 9.42375 19.7498C9.6532 18.7759 10.9657 13.2149 10.9657 13.2149C10.9657 13.2149 10.5836 12.4492 10.5836 11.3172C10.5836 9.53976 11.6136 8.21295 12.8963 8.21295C13.9868 8.21295 14.5133 9.0319 14.5133 10.0135C14.5133 11.1101 13.8155 12.7497 13.4555 14.269C13.1544 15.5411 14.0928 16.5789 15.3474 16.5789C17.6198 16.5789 19.1491 13.6606 19.1491 10.2023C19.1491 7.57447 17.3801 5.60659 14.1598 5.60659C10.5228 5.60659 8.25477 8.31951 8.25477 11.3504C8.25477 12.3948 8.56356 13.1324 9.04651 13.7021C9.26793 13.9642 9.29944 14.0696 9.21895 14.3704C9.1608 14.5912 9.02989 15.1223 8.97432 15.3323C8.8944 15.6365 8.64863 15.7447 8.37336 15.6327C6.6988 14.949 5.91795 13.114 5.91795 11.0513C5.91795 7.64465 8.79071 3.55965 14.489 3.55965C19.0678 3.55965 22.0815 6.87267 22.0815 10.4297C22.0818 15.1355 19.4657 18.6501 15.611 18.6501Z" fill="#354657"/>
</svg>
