<svg width="22" height="22" viewBox="0 0 22 22" fill="none" xmlns="http://www.w3.org/2000/svg">
<path d="M16.7314 6.08993H15.9213V4.92113C15.9212 2.20746 13.7136 0 11 0C8.28643 0 6.07867 2.20776 6.07867 4.92113V6.08993H5.2686C3.9515 6.08993 2.87988 7.16156 2.87988 8.47866V19.6113C2.87988 20.9287 3.9515 22 5.2686 22H16.7313C18.0484 22 19.12 20.9286 19.12 19.6113V8.47866C19.12 7.16156 18.0484 6.08993 16.7314 6.08993ZM7.63705 4.92113C7.63705 3.06688 9.14555 1.55838 11 1.55838C12.8542 1.55838 14.3627 3.06688 14.3627 4.92113V6.08993H7.63705V4.92113ZM17.5617 19.6113C17.5617 20.0695 17.1891 20.4416 16.7314 20.4416H5.2685C4.81063 20.4416 4.43816 20.0692 4.43816 19.6113V8.47866C4.43816 8.02078 4.81063 7.64831 5.2685 7.64831H6.07857V8.74103C5.82817 8.95917 5.66667 9.27684 5.66667 9.63528C5.66667 10.2932 6.19992 10.8266 6.85781 10.8266C7.51549 10.8266 8.04894 10.2932 8.04894 9.63528C8.04894 9.27715 7.88734 8.95947 7.63705 8.74103V7.64831H14.3627V8.74103C14.1124 8.95917 13.9509 9.27684 13.9509 9.63528C13.9509 10.2932 14.4841 10.8266 15.142 10.8266C15.7999 10.8266 16.3331 10.2932 16.3331 9.63528C16.3331 9.27715 16.1715 8.95917 15.9212 8.74103V7.64831H16.7313C17.1892 7.64831 17.5616 8.02078 17.5616 8.47866V19.6113H17.5617Z" fill="#354657"/>
</svg>
