<svg width="267" height="58" viewBox="0 0 267 58" fill="none" xmlns="http://www.w3.org/2000/svg">
<g clip-path="url(#clip0_1_7)">
<path d="M89.7524 21.4141C89.7524 21.9825 89.2655 22.4697 88.6976 22.4697H83.9104V36.1931C83.9104 36.7616 83.4236 37.2488 82.8556 37.2488C82.2876 37.2488 81.8008 36.7616 81.8008 36.1931V22.4697H77.0136C76.4457 22.4697 75.9588 21.9825 75.9588 21.4141C75.9588 20.8456 76.4457 20.3584 77.0136 20.3584H88.6164C89.2655 20.2772 89.7524 20.7644 89.7524 21.4141Z" fill="#354657"/>
<path d="M105.656 36.1932C105.656 36.7616 105.169 37.2488 104.601 37.2488H94.215C93.647 37.2488 93.1602 36.7616 93.1602 36.1932V21.4141C93.1602 20.8457 93.647 20.3584 94.215 20.3584H104.357C104.925 20.3584 105.412 20.8457 105.412 21.4141C105.412 21.9825 104.925 22.4697 104.357 22.4697H95.351V27.6668H103.303C103.87 27.6668 104.357 28.154 104.357 28.7224C104.357 29.2909 103.87 29.7781 103.303 29.7781H95.351V35.0563H104.601C105.169 35.0563 105.656 35.5435 105.656 36.1932Z" fill="#354657"/>
<path d="M110.118 37.2488C109.55 37.2488 109.063 36.7616 109.063 36.1932V21.4141C109.063 20.8457 109.55 20.3584 110.118 20.3584H116.528C116.609 20.3584 117.096 20.3584 117.826 20.5208C118.8 20.7644 119.611 21.2517 120.26 21.8201C120.747 22.3073 121.153 22.8758 121.396 23.5254C121.721 24.2562 121.802 25.0683 121.802 26.0427C121.802 28.0728 120.91 29.6157 119.287 30.5901C118.881 30.8337 118.475 30.9961 117.989 31.1585C118.881 31.9706 119.774 32.945 120.423 34.1631C120.991 35.1375 121.559 35.1375 121.64 35.1375C122.208 35.0563 122.776 35.4623 122.857 36.0308C122.938 36.5992 122.532 37.1676 121.964 37.2488C121.802 37.2488 121.315 37.33 120.666 37.0864C120.098 36.8428 119.206 36.4368 118.557 35.2187C117.826 33.9195 116.853 32.945 115.798 32.2142C115.068 31.727 114.5 31.5646 114.418 31.5646C113.851 31.4834 113.526 30.9961 113.526 30.4277C113.607 29.8593 114.013 29.4533 114.581 29.4533C116.122 29.4533 117.258 29.2096 118.151 28.7224C119.125 28.154 119.53 27.342 119.53 26.0427C119.53 25.1495 119.368 24.4998 119.043 23.9314C118.8 23.5254 118.475 23.2006 118.07 22.9569C117.339 22.5509 116.528 22.4697 116.447 22.4697H111.092V36.1932C111.254 36.7616 110.767 37.2488 110.118 37.2488Z" fill="#354657"/>
<path d="M127.482 37.2488C126.914 37.2488 126.427 36.7616 126.427 36.1932V21.4141C126.427 20.8457 126.914 20.3584 127.482 20.3584H133.892C133.973 20.3584 134.46 20.3584 135.19 20.5208C136.164 20.7644 136.975 21.2517 137.624 21.8201C138.111 22.3073 138.517 22.8758 138.76 23.5254C139.085 24.2562 139.166 25.0683 139.166 26.0427C139.166 28.0728 138.273 29.6157 136.65 30.5901C136.245 30.8337 135.839 30.9961 135.352 31.1585C136.245 31.9706 137.137 32.945 137.786 34.1631C138.354 35.1375 138.922 35.1375 139.003 35.1375C139.571 35.0563 140.139 35.4623 140.221 36.0308C140.302 36.5992 139.896 37.1676 139.328 37.2488C139.166 37.2488 138.679 37.33 138.03 37.0864C137.462 36.8428 136.569 36.4368 135.92 35.2187C135.19 33.9195 134.216 32.945 133.161 32.2142C132.431 31.727 131.863 31.5646 131.782 31.5646C131.214 31.4834 130.89 30.9961 130.89 30.4277C130.971 29.8593 131.376 29.4533 131.944 29.4533C133.486 29.4533 134.622 29.2096 135.515 28.7224C136.488 28.154 136.894 27.342 136.894 26.0427C136.894 25.1495 136.732 24.4998 136.407 23.9314C136.164 23.5254 135.839 23.2006 135.433 22.9569C134.703 22.5509 133.892 22.4697 133.811 22.4697H128.455V36.1932C128.537 36.7616 128.05 37.2488 127.482 37.2488Z" fill="#354657"/>
<path d="M144.683 37.2488C144.44 37.2488 144.196 37.1676 144.034 37.0052C143.628 36.6804 143.466 36.112 143.709 35.706L150.85 20.9269C151.012 20.5208 151.418 20.3584 151.823 20.3584C152.229 20.3584 152.635 20.602 152.797 20.9269L160.018 35.706C160.262 36.1932 160.099 36.8428 159.531 37.1676C158.963 37.4112 158.314 37.2488 158.071 36.6804L156.367 33.1886C155.231 32.8638 154.095 32.7826 152.797 33.0262C151.58 33.2698 150.363 33.6759 149.146 34.3255C146.955 35.4623 145.413 36.924 145.413 36.924C145.17 37.1676 144.927 37.2488 144.683 37.2488ZM151.823 23.8502L147.523 32.7826C147.685 32.7014 147.929 32.539 148.091 32.4578C149.551 31.6458 151.012 31.1585 152.391 30.9149C153.365 30.7525 154.257 30.6713 155.231 30.7525L151.823 23.8502Z" fill="#354657"/>
<path d="M186.794 21.3323V36.1114C186.794 36.6799 186.307 37.1671 185.739 37.1671C185.171 37.1671 184.684 36.6799 184.684 36.1114V29.6151H175.435V36.1114C175.435 36.6799 174.948 37.1671 174.38 37.1671C173.812 37.1671 173.325 36.6799 173.325 36.1114V21.3323C173.325 20.7639 173.812 20.2767 174.38 20.2767C174.948 20.2767 175.435 20.7639 175.435 21.3323V27.5038H184.684V21.3323C184.684 20.7639 185.171 20.2767 185.739 20.2767C186.307 20.2767 186.794 20.7639 186.794 21.3323Z" fill="#354657"/>
<path d="M202.697 36.1932C202.697 36.7616 202.21 37.2488 201.642 37.2488H191.338C190.77 37.2488 190.283 36.7616 190.283 36.1932V21.4141C190.283 20.8457 190.77 20.3584 191.338 20.3584H201.399C201.967 20.3584 202.454 20.8457 202.454 21.4141C202.454 21.9825 201.967 22.4697 201.399 22.4697H192.393V27.6668H200.344C200.912 27.6668 201.399 28.154 201.399 28.7224C201.399 29.2909 200.912 29.7781 200.344 29.7781H192.393V35.0563H201.642C202.21 35.0563 202.697 35.5435 202.697 36.1932Z" fill="#354657"/>
<path d="M207.079 37.2488C206.835 37.2488 206.592 37.1676 206.43 37.0052C206.024 36.6804 205.862 36.112 206.105 35.706L213.245 20.9269C213.407 20.5208 213.813 20.3584 214.219 20.3584C214.625 20.3584 215.03 20.602 215.192 20.9269L222.414 35.706C222.657 36.1932 222.495 36.8428 221.927 37.1676C221.359 37.4112 220.71 37.2488 220.466 36.6804L218.763 33.1886C217.627 32.8638 216.491 32.7826 215.192 33.0262C213.975 33.2698 212.758 33.6759 211.541 34.3255C209.351 35.4623 207.809 36.924 207.809 36.924C207.647 37.1676 207.322 37.2488 207.079 37.2488ZM214.219 23.8502L209.918 32.7826C210.081 32.7014 210.324 32.539 210.486 32.4578C211.947 31.6458 213.407 31.1585 214.787 30.9149C215.76 30.7525 216.653 30.6713 217.627 30.7525L214.219 23.8502Z" fill="#354657"/>
<path d="M235.477 37.2488H226.065C225.497 37.2488 225.01 36.7616 225.01 36.1932V21.4141C225.01 20.8457 225.497 20.3584 226.065 20.3584C226.633 20.3584 227.12 20.8457 227.12 21.4141V35.1375H235.477C236.045 35.1375 236.532 35.6247 236.532 36.1932C236.532 36.7616 236.126 37.2488 235.477 37.2488Z" fill="#354657"/>
<path d="M249.92 21.4141C249.92 21.9825 249.433 22.4697 248.865 22.4697H244.159V36.1931C244.159 36.7616 243.672 37.2488 243.104 37.2488C242.536 37.2488 242.049 36.7616 242.049 36.1931V22.4697H237.343C236.775 22.4697 236.288 21.9825 236.288 21.4141C236.288 20.8456 236.775 20.3584 237.343 20.3584H248.946C249.433 20.2772 249.92 20.7644 249.92 21.4141Z" fill="#354657"/>
<path d="M266.959 21.3323V36.1114C266.959 36.6799 266.472 37.1671 265.904 37.1671C265.336 37.1671 264.849 36.6799 264.849 36.1114V29.6151H255.599V36.1114C255.599 36.6799 255.113 37.1671 254.545 37.1671C253.977 37.1671 253.49 36.6799 253.49 36.1114V21.3323C253.49 20.7639 253.977 20.2767 254.545 20.2767C255.113 20.2767 255.599 20.7639 255.599 21.3323V27.5038H264.849V21.3323C264.849 20.7639 265.336 20.2767 265.904 20.2767C266.472 20.2767 266.959 20.7639 266.959 21.3323Z" fill="#354657"/>
<path d="M19.706 0.627014C18.9245 0.627014 18.221 0.744582 17.6349 1.0581C14.0788 2.74323 12.4375 10.6986 12.6329 18.654C17.3613 16.6162 22.5587 15.2838 26.6228 15.2446C28.3422 12.227 30.5696 9.20945 32.8752 6.66215C28.1859 3.13512 23.1058 0.627014 19.706 0.627014Z" fill="#C7C7F3"/>
<path d="M12.6329 18.6541C5.9897 21.5149 0.284337 25.6297 0.010792 29.1568C-0.301831 33.1932 6.22417 38.8757 13.5317 42.7162C13.1019 38.1311 13.2973 33.3108 14.2351 29.5095C13.2582 26.3743 12.7111 22.4946 12.6329 18.6541Z" fill="#C6B1E6"/>
<path d="M26.6228 15.2054C22.5587 15.2446 17.3614 16.6162 12.6329 18.6149C12.7111 22.4946 13.2582 26.3351 14.2351 29.4703C14.9385 26.5311 16.0718 24.2189 17.674 23.0824C19.1589 22.0243 21.2691 21.5541 23.6529 21.5541C23.692 21.5541 23.731 21.5541 23.7701 21.5541C24.3954 19.5554 25.3723 17.4 26.6228 15.2054Z" fill="#AA95E1"/>
<path d="M42.9965 0C40.1828 0 36.3923 2.74324 32.8362 6.62297C34.2039 7.64189 35.5326 8.73919 36.7831 9.91486C36.8612 9.87568 36.9394 9.83649 37.0175 9.7973C37.8773 9.44459 38.8933 9.28784 40.0265 9.28784C43.4654 9.28784 47.9593 10.6986 52.297 12.8541C50.2649 6.30946 46.9824 0.705405 43.6999 0.0391892C43.5045 0.0391892 43.27 0 42.9965 0Z" fill="#C7C7F3"/>
<path d="M32.8753 6.62299C30.5697 9.17028 28.3813 12.1879 26.6228 15.2054C26.6619 15.2054 26.701 15.2054 26.74 15.2054C28.8112 15.2054 30.6087 15.5581 31.8592 16.3811C32.9534 13.3243 34.5947 10.8946 36.783 9.91488C35.5716 8.77839 34.243 7.6419 32.8753 6.62299Z" fill="#ABABEE"/>
<path d="M26.74 15.2054C26.7009 15.2054 26.6619 15.2054 26.6228 15.2054C25.3723 17.3608 24.3563 19.5554 23.731 21.5933C25.8412 21.5933 28.1859 21.9851 30.5306 22.6514C30.765 20.4568 31.234 18.3014 31.8983 16.3811C30.6087 15.5973 28.8502 15.2054 26.74 15.2054Z" fill="#9D92E5"/>
<path d="M13.5317 42.7162C14.157 49.8095 16.3063 56.3541 19.5107 57.6865C20.0187 57.8824 20.6048 58 21.2692 58C24.8643 58 30.218 54.8257 34.9855 50.5932C33.0316 49.3784 31.1559 48.0068 29.4364 46.5568C28.6939 46.7527 27.8733 46.8703 26.9745 46.8703C23.184 46.8311 18.182 45.1459 13.5317 42.7162Z" fill="#C6B1E6"/>
<path d="M14.196 29.5095C13.2973 33.3108 13.1019 38.1311 13.4926 42.7162C18.182 45.1851 23.184 46.8703 26.8963 46.8703C27.7951 46.8703 28.6158 46.7527 29.3582 46.5568C25.6849 43.4608 22.8713 40.0514 22.207 37.1514C20.4485 37.073 18.8854 36.6027 17.7131 35.6622C16.2281 34.4473 15.0558 32.2527 14.196 29.5095Z" fill="#A98ADA"/>
<path d="M23.6138 21.5933C21.2301 21.5933 19.1199 22.0635 17.6349 23.1216C16.0327 24.2581 14.8994 26.5703 14.196 29.5095C15.0167 32.2527 16.189 34.4473 17.7131 35.623C18.8854 36.5635 20.4485 37.0338 22.207 37.1122C22.0898 36.6419 22.0507 36.1325 22.0507 35.7014C22.0898 33.8987 22.9495 31.9784 24.3172 30.1365C23.7701 29.3919 23.3793 28.6473 23.1449 27.8243C22.715 26.1784 22.9886 24.023 23.731 21.6325C23.692 21.5933 23.6529 21.5933 23.6138 21.5933Z" fill="#9B7BD7"/>
<path d="M23.731 21.5933C22.9885 23.9838 22.715 26.1392 23.1449 27.7852C23.3793 28.6081 23.7701 29.3919 24.3172 30.0973C25.8412 28.0595 27.9514 26.0216 30.3743 24.3365C30.4133 23.7487 30.4524 23.2 30.4915 22.6122C28.1859 21.9852 25.8412 21.5933 23.731 21.5933Z" fill="#957AD9"/>
<path d="M54.2509 37.5825C50.6166 39.1108 46.7089 40.2865 43.2309 40.7568C41.3552 44.0487 38.268 47.6149 34.9073 50.6325C39.5967 53.5716 44.5596 55.6095 47.9984 55.6095C49.0535 55.6095 49.9914 55.4135 50.6948 54.9825C53.9773 52.9838 54.9934 45.2635 54.2509 37.5825Z" fill="#C6B1E6"/>
<path d="M35.1027 39.777C33.9695 42.9514 32.25 45.4203 29.9054 46.3608C29.71 46.4392 29.5537 46.4784 29.3583 46.5568C31.0777 48.0068 32.9534 49.3784 34.9073 50.5933C38.3071 47.5757 41.3552 44.0487 43.2309 40.7176C42.1758 40.8743 41.1598 40.9135 40.2219 40.9135C38.1508 40.9527 36.3923 40.5608 35.1027 39.777Z" fill="#A98ADA"/>
<path d="M31.742 35.0352C28.733 36.3284 25.6068 37.1514 22.8713 37.1514C22.6368 37.1514 22.4024 37.1514 22.1679 37.1514C22.8713 40.0514 25.6849 43.5 29.3192 46.5568C29.5145 46.5176 29.7099 46.4392 29.8662 46.3608C32.2109 45.4203 33.9303 42.9514 35.0636 39.777C34.9854 39.7379 34.9073 39.6595 34.8291 39.6203C33.5396 38.6014 32.4845 36.9946 31.742 35.0352Z" fill="#9B76D4"/>
<path d="M24.3172 30.1365C22.9495 32.0176 22.0898 33.9379 22.0507 35.7014C22.0507 36.1716 22.0898 36.6419 22.207 37.1122C22.4415 37.1122 22.6759 37.1122 22.9104 37.1122C25.6068 37.1122 28.733 36.3284 31.7811 34.996C31.7811 34.9568 31.742 34.8784 31.742 34.8392C28.5376 33.7419 25.8412 32.1352 24.3172 30.1365Z" fill="#946FD3"/>
<path d="M30.3743 24.3757C27.9515 26.1 25.8022 28.0986 24.3172 30.1365C25.8413 32.1351 28.5376 33.7811 31.7029 34.8784C30.6088 31.9 30.1789 28.0986 30.3743 24.3757Z" fill="#906ED3"/>
<path d="M52.336 12.8932C54.5244 19.8297 55.306 27.8243 53.3911 32.0176C53.7819 33.8203 54.0555 35.7014 54.2508 37.5824C60.9332 34.7216 66.7167 30.5676 66.9902 27.0014C67.3028 22.7297 60.0734 16.6946 52.336 12.8932Z" fill="#C6B1E6"/>
<path d="M40.0656 9.28784C38.9323 9.28784 37.9163 9.4446 37.0566 9.7973C36.9784 9.83649 36.9003 9.87568 36.8221 9.91487C40.1828 13.0108 42.9183 16.4203 44.0124 19.3987C45.4192 19.477 46.6697 19.8297 47.6858 20.496C50.304 22.2203 52.2579 26.7662 53.3911 31.9784C55.345 27.7851 54.5244 19.8297 52.336 12.8541C47.9984 10.7378 43.5044 9.28784 40.0656 9.28784Z" fill="#AA95E1"/>
<path d="M36.8221 9.91486C34.6338 10.9338 32.9534 13.3243 31.8983 16.3811C31.9765 16.4203 32.0546 16.4986 32.1328 16.5378C33.5396 17.5567 34.6338 19.3203 35.3762 21.4365C38.1898 20.1432 41.0035 19.3203 43.4654 19.3203C43.6607 19.3203 43.8561 19.3203 44.0125 19.3203C42.8792 16.4203 40.1437 13.0108 36.8221 9.91486Z" fill="#9C87DE"/>
<path d="M31.8592 16.3811C31.1949 18.2622 30.726 20.4176 30.4915 22.6513C31.0386 22.8081 31.6248 23.004 32.1719 23.1608C33.1879 22.5338 34.2821 21.9459 35.3372 21.4365C34.5947 19.2811 33.5005 17.5567 32.0937 16.5378C32.0546 16.4986 31.9765 16.4595 31.8592 16.3811Z" fill="#957AD9"/>
<path d="M30.5306 22.6514C30.4524 23.2 30.4134 23.7879 30.4134 24.3757C30.9995 23.9446 31.5857 23.5527 32.2109 23.2C31.6248 22.9649 31.0777 22.8081 30.5306 22.6514Z" fill="#906ED3"/>
<path d="M53.3911 31.9784C53.1176 32.6054 52.7659 33.1149 52.3751 33.5459C50.812 35.2311 48.1156 36.1716 44.9894 36.5243C44.7158 37.8176 44.0906 39.2284 43.27 40.7176C46.7088 40.2473 50.6557 39.1108 54.2899 37.5432C54.0945 35.6622 53.7819 33.7811 53.3911 31.9784Z" fill="#A98ADA"/>
<path d="M44.0125 19.3987C44.4423 20.5743 44.6377 21.6716 44.5595 22.6514C44.3642 24.5324 43.2309 26.5311 41.5115 28.373C43.6217 30.2541 45.0285 32.4095 45.1848 34.6041C45.2239 35.2311 45.1457 35.8581 44.9894 36.5635C48.1156 36.2108 50.812 35.2703 52.3751 33.5851C52.7659 33.1541 53.1176 32.6446 53.3911 32.0176C52.2579 26.7662 50.304 22.2595 47.6858 20.5351C46.6698 19.7905 45.4193 19.4378 44.0125 19.3987Z" fill="#9B7BD7"/>
<path d="M43.4654 19.3595C41.0035 19.3595 38.1508 20.1432 35.3763 21.4757C35.728 22.5338 36.0406 23.6703 36.236 24.8851C38.2289 25.9041 40.0265 27.0797 41.5115 28.373C43.2309 26.5311 44.3642 24.5324 44.5595 22.6514C44.6768 21.6716 44.4814 20.5743 44.0125 19.3987C43.8171 19.3595 43.6608 19.3595 43.4654 19.3595Z" fill="#9475D6"/>
<path d="M35.3762 21.4757C34.3211 21.9851 33.2269 22.5338 32.2109 23.2C33.5786 23.6703 34.9464 24.2581 36.2359 24.8851C36.0015 23.6703 35.7279 22.5338 35.3762 21.4757Z" fill="#906ED3"/>
<path d="M36.1187 36.0541C35.8843 37.3473 35.5326 38.6014 35.1418 39.7378C36.3923 40.5608 38.1899 40.9135 40.261 40.9135C41.1989 40.9135 42.2149 40.8351 43.27 40.7176C44.0906 39.2676 44.7159 37.8176 44.9894 36.5243C44.0906 36.6027 43.1527 36.6811 42.2149 36.6811C40.2219 36.6811 38.1508 36.4851 36.1187 36.0541Z" fill="#9B76D4"/>
<path d="M31.9374 34.9568C31.8983 34.996 31.8202 34.996 31.7811 35.0352C32.5236 37.0338 33.5396 38.6406 34.9073 39.6203C34.9855 39.6987 35.0636 39.7379 35.1418 39.7771C35.5326 38.6406 35.8843 37.3865 36.1187 36.0933C34.6729 35.7798 33.2661 35.4271 31.9374 34.9568Z" fill="#946CD1"/>
<path d="M31.7029 34.8784C31.7029 34.9176 31.7419 34.996 31.7419 35.0351C31.7809 34.996 31.859 34.996 31.898 34.9568C31.859 34.9176 31.7809 34.9176 31.7029 34.8784Z" fill="#9068D0"/>
<path d="M41.5115 28.373C40.1828 29.823 38.4634 31.2338 36.5877 32.4487C36.5095 33.6635 36.3532 34.9176 36.1187 36.0933C38.1508 36.4851 40.2219 36.6811 42.2149 36.6811C43.1527 36.6811 44.0906 36.6419 44.9894 36.5243C45.1457 35.8189 45.2239 35.1919 45.1848 34.5649C45.0285 32.3703 43.6217 30.2541 41.5115 28.373Z" fill="#946FD3"/>
<path d="M36.236 24.8852C36.6658 27.2757 36.7831 29.9014 36.5877 32.4487C38.4634 31.2338 40.1828 29.823 41.5115 28.373C40.0265 27.0406 38.2289 25.8649 36.236 24.8852Z" fill="#906BD1"/>
<path d="M36.5876 32.4487C35.1418 33.3892 33.5396 34.2514 31.9374 34.9568C33.266 35.427 34.6728 35.7797 36.1187 36.0932C36.3141 34.8784 36.4704 33.6635 36.5876 32.4487Z" fill="#906AD0"/>
<path d="M32.1719 23.1608C31.5466 23.5527 30.9605 23.9446 30.3743 24.3365C30.1789 28.0594 30.6088 31.8608 31.7029 34.8392C31.7811 34.8784 31.8592 34.8784 31.9374 34.9176C33.5396 34.2121 35.1027 33.35 36.5877 32.4094C36.7831 29.823 36.6658 27.2365 36.236 24.8459C34.9464 24.2189 33.5787 23.6311 32.1719 23.1608Z" fill="#8E68D1"/>
<path d="M34.3602 22.4554C34.3602 23.1216 33.8522 23.631 33.1879 23.631H28.0296V38.6797C28.0296 39.3459 27.4825 39.8554 26.8573 39.8554C26.193 39.8554 25.685 39.3459 25.685 38.6797V23.631H20.4876C19.8233 23.631 19.3153 23.1216 19.3153 22.4554C19.3153 21.7892 19.8233 21.2797 20.4876 21.2797H33.1879C33.8522 21.2797 34.3602 21.7892 34.3602 22.4554Z" fill="white"/>
<path d="M43.5045 22.4162V38.6405C43.5045 39.2676 42.9964 39.8162 42.3321 39.8162C41.7069 39.8162 41.1598 39.2676 41.1598 38.6405V31.5081H34.3602V38.6013C34.3602 39.2284 33.8522 39.777 33.1879 39.777C32.5236 39.777 32.0156 39.2284 32.0156 38.6013V26.0216C32.0156 25.3554 32.5236 24.8459 33.1879 24.8459C33.8522 24.8459 34.3602 25.3554 34.3602 26.0216V29.1568H41.1598V22.4162C41.1598 21.75 41.7069 21.2405 42.3321 21.2405C42.9574 21.2013 43.5045 21.75 43.5045 22.4162Z" fill="white"/>
</g>
<defs>
<clipPath id="clip0_1_7">
<rect width="267" height="58" fill="white"/>
</clipPath>
</defs>
</svg>
