<svg width="33" height="33" viewBox="0 0 33 33" fill="none" xmlns="http://www.w3.org/2000/svg">
<rect width="33" height="33" rx="3" fill="#946FD3"/>
<path d="M22.671 14.4476L22.0914 10.3873C22.0438 10.0544 21.6349 9.91608 21.3957 10.1554L20.5515 11.0001C19.466 10.3449 18.2335 10 16.9662 10C13.1551 10 10.0954 12.9848 10.0001 16.7952C9.99494 17.0034 10.1462 17.1821 10.352 17.2117L11.9899 17.446C12.2341 17.4817 12.4613 17.2898 12.4579 17.0343C12.4239 14.5195 14.4537 12.4609 16.9662 12.4609C17.5746 12.4609 18.1759 12.5847 18.7315 12.8214L17.9177 13.6357C17.6801 13.8735 17.8149 14.2839 18.1495 14.3318L22.2071 14.9118C22.4745 14.9521 22.7094 14.7195 22.671 14.4476Z" fill="white"/>
<path d="M23.648 16.8199L22.0113 16.586C21.7998 16.5592 21.5433 16.7405 21.5433 17.0274C21.5433 19.5151 19.5207 21.5391 17.0346 21.5391C16.4294 21.5391 15.8309 21.4165 15.2774 21.1822L16.0651 20.3939C16.3028 20.1561 16.1679 19.7457 15.8334 19.6978L11.7757 19.1174C11.5092 19.0793 11.2732 19.308 11.3118 19.5816L11.8914 23.6419C11.9391 23.9752 12.3476 24.1126 12.587 23.8738L13.4517 23.0091C14.532 23.6583 15.7637 24 17.0346 24C20.8272 24 23.8866 21.03 23.9998 17.2385C24.0059 17.0298 23.8546 16.8496 23.648 16.8199Z" fill="white"/>
</svg>
