<svg width="22" height="22" viewBox="0 0 22 22" fill="none" xmlns="http://www.w3.org/2000/svg">
<path d="M11.0001 12.3917C4.38989 12.3917 0.749451 15.5188 0.749451 21.1971C0.749451 21.6406 1.10888 22 1.55236 22H20.4477C20.8912 22 21.2507 21.6406 21.2507 21.1971C21.2507 15.5191 17.6103 12.3917 11.0001 12.3917ZM2.3845 20.3942C2.70032 16.1486 5.59482 13.9976 11.0001 13.9976C16.4053 13.9976 19.2999 16.1486 19.616 20.3942H2.3845V20.3942Z" fill="#354657"/>
<path d="M11 0C7.96365 0 5.67401 2.3357 5.67401 5.43284C5.67401 8.62069 8.06325 11.2139 11 11.2139C13.9368 11.2139 16.3261 8.62069 16.3261 5.4331C16.3261 2.3357 14.0364 0 11 0ZM11 9.60828C8.94858 9.60828 7.27984 7.73532 7.27984 5.4331C7.27984 3.21544 8.84446 1.60583 11 1.60583C13.1211 1.60583 14.7202 3.25102 14.7202 5.4331C14.7202 7.73532 13.0515 9.60828 11 9.60828Z" fill="#354657"/>
</svg>